<svg width="132" height="128" viewBox="0 0 132 128" fill="none" xmlns="http://www.w3.org/2000/svg">
<defs>
 <linearGradient id="gradient" x2="1" y2="1">
    <stop offset="0%" stop-color="#75655f" />
    <stop offset="50%" stop-color="#CBB9B1" />
    <stop offset="100%" stop-color="#5B7C69" />
  </linearGradient>
</defs>
<circle cx="64" cy="64" r="62" stroke="url(#gradient)" stroke-width="4"/>
<circle cx="64.5" cy="64.5" r="47.5" stroke="url(#gradient)" stroke-width="6"/>
<path d="M22.8578 70C22.8044 70 22.7671 69.9893 22.7458 69.968C22.7244 69.936 22.7138 69.8827 22.7138 69.808C22.7138 69.4453 22.8524 69.1147 23.1298 68.816C23.3964 68.5067 23.6844 68.352 23.9938 68.352H24.3458C24.5804 68.0107 24.7511 67.4613 24.8578 66.704L25.7378 61.408C25.8231 60.928 25.9831 60.4853 26.2178 60.08C26.4524 59.6747 26.7831 59.28 27.2098 58.896C27.5938 58.5333 27.9938 58.256 28.4098 58.064C28.8258 57.872 29.2844 57.776 29.7858 57.776C30.0311 57.776 30.2498 57.7973 30.4418 57.84C30.6338 57.872 30.8418 57.9253 31.0658 58C31.3218 58.0853 31.4498 58.1547 31.4498 58.208C31.4498 58.2933 31.3698 58.4107 31.2098 58.56C31.0498 58.6987 30.8631 58.8213 30.6498 58.928C30.4364 59.0347 30.2658 59.088 30.1378 59.088C30.0844 59.088 29.9564 59.056 29.7538 58.992C29.5511 58.928 29.3378 58.896 29.1138 58.896C28.7724 58.896 28.5111 58.9653 28.3298 59.104C28.1164 59.264 27.9458 59.4987 27.8178 59.808C27.6898 60.1067 27.5778 60.5493 27.4818 61.136L26.5058 67.104C26.4098 67.68 26.2231 68.1227 25.9458 68.432V68.448C26.2018 68.4907 26.5324 68.528 26.9378 68.56C27.3538 68.592 27.7271 68.608 28.0578 68.608C28.6764 68.608 29.1458 68.56 29.4658 68.464C29.7964 68.368 30.1218 68.208 30.4418 67.984C30.5484 67.8773 30.6604 67.824 30.7778 67.824C30.8631 67.824 30.9058 67.8987 30.9058 68.048C30.9058 68.336 30.7564 68.6347 30.4578 68.944C30.1591 69.2427 29.7538 69.4933 29.2418 69.696C28.7298 69.8987 28.1644 70 27.5458 70C27.2364 70 26.6764 69.9573 25.8658 69.872C25.1191 69.776 24.5378 69.728 24.1218 69.728C23.8444 69.728 23.6311 69.7493 23.4818 69.792C23.3324 69.824 23.2044 69.8667 23.0978 69.92C22.9911 69.9733 22.9111 70 22.8578 70ZM34.6174 70.16C34.0627 70.16 33.6254 69.9733 33.3054 69.6C32.996 69.216 32.8414 68.6827 32.8414 68C32.8414 67.2 33.044 66.3627 33.4494 65.488C33.8654 64.6027 34.388 63.8667 35.0174 63.28C35.6574 62.6827 36.2974 62.384 36.9374 62.384C37.2894 62.384 37.5667 62.4853 37.7694 62.688C37.9827 62.8907 38.0894 63.184 38.0894 63.568C38.0894 64.048 37.9347 64.544 37.6254 65.056C37.316 65.5573 36.8894 66.0267 36.3454 66.464C35.812 66.8907 35.2094 67.2373 34.5374 67.504C34.5694 68.24 34.8947 68.608 35.5134 68.608C35.8547 68.608 36.1747 68.5013 36.4734 68.288C36.7827 68.0747 37.0547 67.7867 37.2894 67.424C37.3427 67.328 37.3907 67.2587 37.4334 67.216C37.476 67.1627 37.5187 67.136 37.5614 67.136C37.6254 67.136 37.668 67.1573 37.6894 67.2C37.7107 67.2427 37.7214 67.3173 37.7214 67.424C37.7214 67.7653 37.5667 68.1547 37.2574 68.592C36.9587 69.0293 36.5694 69.4027 36.0894 69.712C35.6094 70.0107 35.1187 70.16 34.6174 70.16ZM34.9374 66.192C35.172 66.192 35.412 66.112 35.6574 65.952C35.9027 65.7813 36.1054 65.5627 36.2654 65.296C36.4254 65.0293 36.5054 64.7413 36.5054 64.432C36.5054 64.048 36.3507 63.856 36.0414 63.856C35.7107 63.856 35.412 64.064 35.1454 64.48C34.8787 64.896 34.708 65.4507 34.6334 66.144C34.6974 66.176 34.7987 66.192 34.9374 66.192ZM40.4664 70.16C40.285 70.16 40.1944 70.096 40.1944 69.968C40.1944 69.9147 40.2317 69.7973 40.3064 69.616C40.3917 69.424 40.4717 69.1307 40.5464 68.736L40.8184 67.2C41.1064 65.5573 41.2557 64.5973 41.2664 64.32V64.176C41.2664 63.9947 41.2184 63.904 41.1224 63.904C40.9197 63.904 40.6424 64.2293 40.2904 64.88C40.2477 64.9653 40.1997 65.0453 40.1464 65.12C40.093 65.184 40.0397 65.216 39.9864 65.216C39.8797 65.216 39.8264 65.1253 39.8264 64.944C39.8264 64.6667 39.949 64.3253 40.1944 63.92C40.4504 63.504 40.7597 63.1467 41.1224 62.848C41.4957 62.5387 41.853 62.384 42.1944 62.384C42.653 62.384 42.8824 62.688 42.8824 63.296C42.8824 63.424 42.8397 63.872 42.7544 64.64H42.7704C43.2184 63.8507 43.6397 63.28 44.0344 62.928C44.4397 62.5653 44.845 62.384 45.2504 62.384C45.5277 62.384 45.7517 62.464 45.9224 62.624C46.093 62.784 46.1784 63.0133 46.1784 63.312C46.1784 63.6 46.109 63.8827 45.9704 64.16C45.8424 64.4373 45.6824 64.6667 45.4904 64.848C45.2984 65.0187 45.133 65.104 44.9944 65.104C44.909 65.104 44.8824 65.0507 44.9144 64.944C44.9464 64.7947 44.9624 64.656 44.9624 64.528C44.9624 64.2507 44.8397 64.112 44.5944 64.112C44.189 64.112 43.7837 64.3893 43.3784 64.944C42.9837 65.4987 42.6744 66.2987 42.4504 67.344C42.2904 68.0053 42.1837 68.5227 42.1304 68.896C42.077 69.1947 41.8637 69.4827 41.4904 69.76C41.1277 70.0267 40.7864 70.16 40.4664 70.16ZM47.3991 70.16C47.2285 70.16 47.1431 70.1067 47.1431 70C47.1431 69.9467 47.1805 69.8133 47.2551 69.6C47.3405 69.3867 47.4098 69.136 47.4631 68.848L48.4551 62.672C48.6685 61.3387 48.9405 60.2453 49.2711 59.392C49.6125 58.5387 50.0178 57.8507 50.4871 57.328C50.8818 56.9013 51.2551 56.6187 51.6071 56.48C51.9591 56.3307 52.4071 56.2133 52.9511 56.128C53.2711 56.0747 53.4898 56.0373 53.6071 56.016C53.7245 55.984 53.7991 55.968 53.8311 55.968C53.9165 55.968 53.9591 56.0267 53.9591 56.144C53.9591 56.24 53.9165 56.3573 53.8311 56.496C53.7565 56.624 53.6605 56.7467 53.5431 56.864C53.4471 56.96 53.3458 57.024 53.2391 57.056C53.1431 57.0773 52.9885 57.0933 52.7751 57.104C52.4445 57.136 52.1565 57.2267 51.9111 57.376C51.6658 57.5253 51.4311 57.7653 51.2071 58.096C50.9298 58.544 50.7058 59.1253 50.5351 59.84C50.3645 60.544 50.1565 61.664 49.9111 63.2L49.4791 65.888H49.4951L49.8631 65.296C50.3538 64.496 50.7751 63.888 51.1271 63.472C51.4791 63.0453 51.7831 62.7573 52.0391 62.608C52.3058 62.4587 52.5831 62.384 52.8711 62.384C53.2018 62.384 53.4631 62.464 53.6551 62.624C53.8471 62.7733 53.9431 62.9813 53.9431 63.248C53.9431 63.4507 53.8951 63.648 53.7991 63.84C53.7138 64.0213 53.6125 64.112 53.4951 64.112C53.4525 64.112 53.3831 64.08 53.2871 64.016C53.1911 63.9307 53.0898 63.8667 52.9831 63.824C52.8871 63.7707 52.7645 63.744 52.6151 63.744C52.3378 63.744 52.0925 63.824 51.8791 63.984C51.6658 64.144 51.4205 64.416 51.1431 64.8L50.3751 65.888C51.1965 67.7013 51.8045 68.608 52.1991 68.608C52.4125 68.608 52.7058 68.3467 53.0791 67.824C53.1431 67.7173 53.1965 67.6373 53.2391 67.584C53.2925 67.5307 53.3511 67.504 53.4151 67.504C53.5111 67.504 53.5591 67.584 53.5591 67.744C53.5591 67.8293 53.5538 67.8933 53.5431 67.936C53.5111 68.2347 53.3938 68.56 53.1911 68.912C52.9885 69.264 52.7485 69.5627 52.4711 69.808C52.2045 70.0427 51.9485 70.16 51.7031 70.16C51.3938 70.16 51.0951 69.9627 50.8071 69.568C50.5191 69.1733 50.2045 68.6187 49.8631 67.904L49.5271 67.2C49.3565 67.4667 49.2498 67.648 49.2071 67.744L48.9991 68.848C48.9458 69.1573 48.7485 69.456 48.4071 69.744C48.0658 70.0213 47.7298 70.16 47.3991 70.16ZM56.3355 70.16C56.0048 70.16 55.7435 69.9947 55.5515 69.664C55.3702 69.3333 55.2795 68.8907 55.2795 68.336C55.2795 67.4507 55.4928 66.544 55.9195 65.616C56.3568 64.688 56.9488 63.92 57.6955 63.312C58.4422 62.6933 59.2475 62.384 60.1115 62.384C60.3888 62.384 60.6608 62.416 60.9275 62.48C61.2048 62.544 61.4288 62.624 61.5995 62.72C61.5035 62.9547 61.4395 63.1467 61.4075 63.296C61.3755 63.4453 61.3542 63.5413 61.3435 63.584C61.2688 63.968 61.1568 64.5547 61.0075 65.344C60.8688 66.1227 60.7355 66.8693 60.6075 67.584C60.5435 67.904 60.5115 68.1493 60.5115 68.32C60.5115 68.4373 60.5275 68.5227 60.5595 68.576C60.6022 68.6293 60.6608 68.656 60.7355 68.656C60.9168 68.656 61.0822 68.5493 61.2315 68.336C61.3808 68.112 61.5408 67.8027 61.7115 67.408C61.7328 67.344 61.7595 67.2907 61.7915 67.248C61.8235 67.2053 61.8662 67.184 61.9195 67.184C62.0155 67.184 62.0635 67.2587 62.0635 67.408C62.0635 67.4827 62.0582 67.5413 62.0475 67.584C61.9942 67.9893 61.8555 68.3947 61.6315 68.8C61.4075 69.1947 61.1302 69.52 60.7995 69.776C60.4795 70.032 60.1488 70.16 59.8075 70.16C59.5302 70.16 59.3115 70.0587 59.1515 69.856C59.0022 69.6533 58.9275 69.3813 58.9275 69.04C58.9275 68.9547 58.9382 68.8267 58.9595 68.656L59.0395 68.112H59.0075C58.6128 68.7093 58.1595 69.2 57.6475 69.584C57.1462 69.968 56.7088 70.16 56.3355 70.16ZM57.2475 68.576C57.4822 68.576 57.7808 68.368 58.1435 67.952C58.5168 67.536 58.8635 67.0133 59.1835 66.384C59.5035 65.744 59.7168 65.1093 59.8235 64.48L59.9355 63.856C59.6688 63.696 59.4235 63.616 59.1995 63.616C58.8582 63.616 58.5115 63.8293 58.1595 64.256C57.8182 64.672 57.5355 65.216 57.3115 65.888C57.0982 66.5493 56.9915 67.2267 56.9915 67.92C56.9915 68.176 57.0075 68.352 57.0395 68.448C57.0822 68.5333 57.1515 68.576 57.2475 68.576ZM64.992 70.16C64.64 70.16 64.3467 70.096 64.112 69.968C63.8773 69.84 63.7013 69.6907 63.584 69.52C63.4773 69.3387 63.4187 69.1733 63.408 69.024C63.376 68.832 63.424 68.6347 63.552 68.432C63.68 68.2187 63.856 68.0267 64.08 67.856C64.2187 67.7493 64.3147 67.696 64.368 67.696C64.4107 67.696 64.448 67.7227 64.48 67.776C64.5227 67.8187 64.56 67.8773 64.592 67.952C64.6987 68.2613 64.832 68.512 64.992 68.704C65.152 68.896 65.3867 68.992 65.696 68.992C65.952 68.992 66.16 68.9227 66.32 68.784C66.4907 68.6453 66.576 68.464 66.576 68.24C66.576 68.1013 66.528 67.936 66.432 67.744C66.336 67.5413 66.16 67.248 65.904 66.864L65.568 66.384C65.28 65.9573 65.0827 65.6427 64.976 65.44C64.88 65.2267 64.832 65.0133 64.832 64.8C64.832 64.3733 64.9547 63.9733 65.2 63.6C65.456 63.2267 65.7867 62.9333 66.192 62.72C66.608 62.496 67.0507 62.384 67.52 62.384C67.936 62.384 68.2827 62.4693 68.56 62.64C68.8373 62.8 68.976 63.0187 68.976 63.296C68.976 63.4987 68.8853 63.728 68.704 63.984C68.5653 64.1547 68.4533 64.24 68.368 64.24C68.3253 64.24 68.2933 64.2293 68.272 64.208C68.2507 64.1867 68.224 64.16 68.192 64.128C68.1707 64.0853 68.1493 64.048 68.128 64.016C67.8827 63.664 67.5627 63.488 67.168 63.488C66.912 63.488 66.704 63.5467 66.544 63.664C66.384 63.7813 66.304 63.9467 66.304 64.16C66.304 64.32 66.3467 64.4747 66.432 64.624C66.5173 64.7627 66.6507 64.944 66.832 65.168L67.104 65.52L67.472 66C67.6853 66.288 67.84 66.5493 67.936 66.784C68.032 67.008 68.08 67.2587 68.08 67.536C68.08 68.048 67.9147 68.5067 67.584 68.912C67.264 69.3067 66.8587 69.616 66.368 69.84C65.888 70.0533 65.4293 70.16 64.992 70.16ZM72.5496 70.16C72.1976 70.16 71.9363 70.048 71.7656 69.824C71.595 69.6 71.5096 69.2427 71.5096 68.752C71.5096 68.4427 71.5523 68.032 71.6376 67.52L72.2936 63.776H70.9976C70.8803 63.776 70.795 63.7653 70.7416 63.744C70.699 63.712 70.6776 63.6693 70.6776 63.616C70.6776 63.52 70.747 63.3867 70.8856 63.216C71.0243 63.0453 71.179 62.8907 71.3496 62.752C71.531 62.6133 71.6803 62.544 71.7976 62.544H72.5336L72.6616 61.712C72.7363 61.3173 72.955 60.9653 73.3176 60.656C73.691 60.3467 74.0536 60.192 74.4056 60.192C74.491 60.192 74.5603 60.208 74.6136 60.24C74.667 60.272 74.6936 60.32 74.6936 60.384C74.6936 60.4267 74.6403 60.544 74.5336 60.736C74.427 60.9173 74.347 61.1733 74.2936 61.504L74.1176 62.544H75.4776C75.6056 62.544 75.691 62.5547 75.7336 62.576C75.7763 62.5867 75.7976 62.6187 75.7976 62.672C75.7976 62.7787 75.723 62.9227 75.5736 63.104C75.4243 63.2747 75.2536 63.4293 75.0616 63.568C74.8696 63.7067 74.7256 63.776 74.6296 63.776H73.9096L73.2696 67.584C73.195 67.9573 73.1576 68.2453 73.1576 68.448C73.1576 68.5973 73.179 68.704 73.2216 68.768C73.275 68.8213 73.3496 68.848 73.4456 68.848C73.7976 68.848 74.1283 68.56 74.4376 67.984C74.4696 67.9093 74.5016 67.856 74.5336 67.824C74.5656 67.7813 74.603 67.76 74.6456 67.76C74.7523 67.76 74.8056 67.8507 74.8056 68.032C74.8056 68.3093 74.699 68.6187 74.4856 68.96C74.2723 69.2907 73.9896 69.5733 73.6376 69.808C73.2963 70.0427 72.9336 70.16 72.5496 70.16ZM78.7905 70.16C78.2358 70.16 77.7985 69.9733 77.4785 69.6C77.1692 69.216 77.0145 68.6827 77.0145 68C77.0145 67.2 77.2172 66.3627 77.6225 65.488C78.0385 64.6027 78.5612 63.8667 79.1905 63.28C79.8305 62.6827 80.4705 62.384 81.1105 62.384C81.4625 62.384 81.7398 62.4853 81.9425 62.688C82.1558 62.8907 82.2625 63.184 82.2625 63.568C82.2625 64.048 82.1078 64.544 81.7985 65.056C81.4892 65.5573 81.0625 66.0267 80.5185 66.464C79.9852 66.8907 79.3825 67.2373 78.7105 67.504C78.7425 68.24 79.0678 68.608 79.6865 68.608C80.0278 68.608 80.3478 68.5013 80.6465 68.288C80.9558 68.0747 81.2278 67.7867 81.4625 67.424C81.5158 67.328 81.5638 67.2587 81.6065 67.216C81.6492 67.1627 81.6918 67.136 81.7345 67.136C81.7985 67.136 81.8412 67.1573 81.8625 67.2C81.8838 67.2427 81.8945 67.3173 81.8945 67.424C81.8945 67.7653 81.7398 68.1547 81.4305 68.592C81.1318 69.0293 80.7425 69.4027 80.2625 69.712C79.7825 70.0107 79.2918 70.16 78.7905 70.16ZM79.1105 66.192C79.3452 66.192 79.5852 66.112 79.8305 65.952C80.0758 65.7813 80.2785 65.5627 80.4385 65.296C80.5985 65.0293 80.6785 64.7413 80.6785 64.432C80.6785 64.048 80.5238 63.856 80.2145 63.856C79.8838 63.856 79.5852 64.064 79.3185 64.48C79.0518 64.896 78.8812 65.4507 78.8065 66.144C78.8705 66.176 78.9718 66.192 79.1105 66.192ZM84.9554 70.16C84.3794 70.16 84.0914 69.7387 84.0914 68.896C84.0914 68.64 84.1127 68.384 84.1554 68.128L85.1154 62.256C85.3394 60.816 85.6114 59.664 85.9314 58.8C86.262 57.936 86.6994 57.2907 87.2434 56.864C87.5634 56.6187 87.878 56.4533 88.1874 56.368C88.5074 56.2827 88.9234 56.2027 89.4354 56.128C89.766 56.0747 89.9794 56.0373 90.0754 56.016C90.182 55.984 90.2514 55.968 90.2834 55.968C90.39 55.968 90.4434 56.0267 90.4434 56.144C90.4434 56.24 90.4007 56.3573 90.3154 56.496C90.2407 56.624 90.1447 56.7467 90.0274 56.864C89.91 56.9707 89.7927 57.04 89.6754 57.072C89.5687 57.0933 89.43 57.104 89.2594 57.104C88.79 57.104 88.4007 57.264 88.0914 57.584C87.8247 57.8507 87.5954 58.2507 87.4034 58.784C87.222 59.3067 87.0567 60.0427 86.9074 60.992L85.7874 68.048C85.7767 68.1227 85.7714 68.2133 85.7714 68.32C85.7714 68.448 85.7874 68.5387 85.8194 68.592C85.8514 68.6347 85.8994 68.656 85.9634 68.656C86.1234 68.656 86.2727 68.544 86.4114 68.32C86.55 68.096 86.7047 67.792 86.8754 67.408C86.8967 67.344 86.9234 67.2907 86.9554 67.248C86.9874 67.2053 87.0247 67.184 87.0674 67.184C87.1634 67.184 87.2114 67.2747 87.2114 67.456C87.2114 67.8187 87.094 68.2133 86.8594 68.64C86.6247 69.0667 86.3314 69.4293 85.9794 69.728C85.6274 70.016 85.286 70.16 84.9554 70.16ZM90.1066 70.16C89.5306 70.16 89.2426 69.7387 89.2426 68.896C89.2426 68.64 89.264 68.384 89.3066 68.128L90.2666 62.256C90.4906 60.816 90.7626 59.664 91.0826 58.8C91.4133 57.936 91.8506 57.2907 92.3946 56.864C92.7146 56.6187 93.0293 56.4533 93.3386 56.368C93.6586 56.2827 94.0746 56.2027 94.5866 56.128C94.9173 56.0747 95.1306 56.0373 95.2266 56.016C95.3333 55.984 95.4026 55.968 95.4346 55.968C95.5413 55.968 95.5946 56.0267 95.5946 56.144C95.5946 56.24 95.552 56.3573 95.4666 56.496C95.392 56.624 95.296 56.7467 95.1786 56.864C95.0613 56.9707 94.944 57.04 94.8266 57.072C94.72 57.0933 94.5813 57.104 94.4106 57.104C93.9413 57.104 93.552 57.264 93.2426 57.584C92.976 57.8507 92.7466 58.2507 92.5546 58.784C92.3733 59.3067 92.208 60.0427 92.0586 60.992L90.9386 68.048C90.928 68.1227 90.9226 68.2133 90.9226 68.32C90.9226 68.448 90.9386 68.5387 90.9706 68.592C91.0026 68.6347 91.0506 68.656 91.1146 68.656C91.2746 68.656 91.424 68.544 91.5626 68.32C91.7013 68.096 91.856 67.792 92.0266 67.408C92.048 67.344 92.0746 67.2907 92.1066 67.248C92.1386 67.2053 92.176 67.184 92.2186 67.184C92.3146 67.184 92.3626 67.2747 92.3626 67.456C92.3626 67.8187 92.2453 68.2133 92.0106 68.64C91.776 69.0667 91.4826 69.4293 91.1306 69.728C90.7786 70.016 90.4373 70.16 90.1066 70.16ZM96.1817 70.16C95.6271 70.16 95.1897 69.9733 94.8697 69.6C94.5604 69.216 94.4057 68.6827 94.4057 68C94.4057 67.2 94.6084 66.3627 95.0137 65.488C95.4297 64.6027 95.9524 63.8667 96.5817 63.28C97.2217 62.6827 97.8617 62.384 98.5017 62.384C98.8537 62.384 99.1311 62.4853 99.3337 62.688C99.5471 62.8907 99.6537 63.184 99.6537 63.568C99.6537 64.048 99.4991 64.544 99.1897 65.056C98.8804 65.5573 98.4537 66.0267 97.9097 66.464C97.3764 66.8907 96.7737 67.2373 96.1017 67.504C96.1337 68.24 96.4591 68.608 97.0777 68.608C97.4191 68.608 97.7391 68.5013 98.0377 68.288C98.3471 68.0747 98.6191 67.7867 98.8537 67.424C98.9071 67.328 98.9551 67.2587 98.9977 67.216C99.0404 67.1627 99.0831 67.136 99.1257 67.136C99.1897 67.136 99.2324 67.1573 99.2537 67.2C99.2751 67.2427 99.2857 67.3173 99.2857 67.424C99.2857 67.7653 99.1311 68.1547 98.8217 68.592C98.5231 69.0293 98.1337 69.4027 97.6537 69.712C97.1737 70.0107 96.6831 70.16 96.1817 70.16ZM96.5017 66.192C96.7364 66.192 96.9764 66.112 97.2217 65.952C97.4671 65.7813 97.6697 65.5627 97.8297 65.296C97.9897 65.0293 98.0697 64.7413 98.0697 64.432C98.0697 64.048 97.9151 63.856 97.6057 63.856C97.2751 63.856 96.9764 64.064 96.7097 64.48C96.4431 64.896 96.2724 65.4507 96.1977 66.144C96.2617 66.176 96.3631 66.192 96.5017 66.192ZM103.275 70.16C102.923 70.16 102.661 70.048 102.491 69.824C102.32 69.6 102.235 69.2427 102.235 68.752C102.235 68.4427 102.277 68.032 102.363 67.52L103.019 63.776H101.723C101.605 63.776 101.52 63.7653 101.467 63.744C101.424 63.712 101.403 63.6693 101.403 63.616C101.403 63.52 101.472 63.3867 101.611 63.216C101.749 63.0453 101.904 62.8907 102.075 62.752C102.256 62.6133 102.405 62.544 102.523 62.544H103.259L103.387 61.712C103.461 61.3173 103.68 60.9653 104.043 60.656C104.416 60.3467 104.779 60.192 105.131 60.192C105.216 60.192 105.285 60.208 105.339 60.24C105.392 60.272 105.419 60.32 105.419 60.384C105.419 60.4267 105.365 60.544 105.259 60.736C105.152 60.9173 105.072 61.1733 105.019 61.504L104.843 62.544H106.203C106.331 62.544 106.416 62.5547 106.459 62.576C106.501 62.5867 106.523 62.6187 106.523 62.672C106.523 62.7787 106.448 62.9227 106.299 63.104C106.149 63.2747 105.979 63.4293 105.787 63.568C105.595 63.7067 105.451 63.776 105.355 63.776H104.635L103.995 67.584C103.92 67.9573 103.883 68.2453 103.883 68.448C103.883 68.5973 103.904 68.704 103.947 68.768C104 68.8213 104.075 68.848 104.171 68.848C104.523 68.848 104.853 68.56 105.163 67.984C105.195 67.9093 105.227 67.856 105.259 67.824C105.291 67.7813 105.328 67.76 105.371 67.76C105.477 67.76 105.531 67.8507 105.531 68.032C105.531 68.3093 105.424 68.6187 105.211 68.96C104.997 69.2907 104.715 69.5733 104.363 69.808C104.021 70.0427 103.659 70.16 103.275 70.16Z" fill="currentColor"/>
</svg>
